<svg class="flex-shrink-0" xmlns="http://www.w3.org/2000/svg" width="77" height="24" viewBox="0 0 77 24" fill="currentColor"><path d="M40.713 15.797c.701-.624 1.055-1.431 1.055-2.427 0-.806-.242-1.486-.733-2.032-.483-.546-1.232-1.02-2.255-1.423-.838-.324-1.418-.625-1.732-.901a1.41 1.41 0 0 1-.548-1.138 1.39 1.39 0 0 1 .475-1.059c.379-.316.91-.482 1.579-.482.854 0 1.611.182 2.288.538l.483-1.518c-.717-.372-1.619-.553-2.699-.553-1.216 0-2.191.308-2.924.917a2.94 2.94 0 0 0-1.103 2.356c0 1.463 1.039 2.577 3.142 3.344.765.277 1.313.577 1.643.901a1.63 1.63 0 0 1 .491 1.194c0 .53-.201.957-.604 1.273-.395.316-.959.474-1.675.474-.999 0-1.917-.245-2.755-.727l-.443 1.557c.773.482 1.796.727 3.077.727 1.386 0 2.465-.34 3.238-1.02zm-31.706.846h2.03L7.195 4.966H4.826L1 16.644h1.974l1.055-3.431h3.867l1.112 3.431zM6.558 8.729l1.007 3.044H4.367l.991-3.044.564-2.198h.04l.596 2.198zm13.122 6.997c.797-.83 1.192-1.961 1.192-3.392 0-1.289-.338-2.316-1.031-3.107-.677-.783-1.514-1.178-2.529-1.178-1.289 0-2.255.506-2.892 1.51h-.032l-.105-1.336h-1.675l.072 2.767v9.068h1.909v-4.42c.499.798 1.313 1.194 2.449 1.194 1.047 0 1.933-.364 2.642-1.107zm-1.313-5.353c.379.53.564 1.202.564 2.024 0 .893-.201 1.605-.604 2.15-.403.538-.959.814-1.675.814-.612 0-1.112-.213-1.49-.633s-.572-.941-.572-1.55v-1.407c0-.15.032-.34.089-.569a2.11 2.11 0 0 1 .749-1.202c.387-.3.814-.459 1.281-.459a1.96 1.96 0 0 1 1.659.83zm12.366 1.961c0 1.431-.395 2.562-1.192 3.392-.709.743-1.595 1.107-2.642 1.107-1.136 0-1.949-.395-2.449-1.194v4.42H22.54v-9.068l-.072-2.767h1.675l.105 1.336h.032c.636-1.004 1.603-1.51 2.892-1.51 1.015 0 1.853.395 2.529 1.178.693.791 1.031 1.818 1.031 3.107zm-1.941.063c0-.822-.185-1.494-.564-2.024a1.96 1.96 0 0 0-1.659-.83c-.467 0-.894.158-1.281.459-.379.308-.628.704-.749 1.202-.056.229-.089.419-.089.569v1.407c0 .609.193 1.131.572 1.55s.878.633 1.49.633c.717 0 1.281-.277 1.676-.814.411-.546.604-1.257.604-2.15zM48.083 9.63h-2.102v4.087c0 1.036.37 1.557 1.112 1.557.338 0 .62-.032.846-.087l.056 1.423c-.379.134-.87.206-1.482.206-.757 0-1.337-.229-1.764-.68s-.636-1.21-.636-2.269V9.623h-1.248V8.223h1.249V6.681l1.869-.553v2.095h2.102V9.63zm8.329 5.922c.749-.83 1.128-1.89 1.128-3.186 0-1.257-.362-2.285-1.096-3.075-.765-.822-1.78-1.233-3.037-1.233-1.305 0-2.344.419-3.117 1.249-.765.83-1.152 1.897-1.152 3.202 0 1.249.37 2.285 1.12 3.099s1.756 1.225 3.013 1.225c1.305 0 2.352-.427 3.142-1.281zm-1.353-5.131c.338.553.508 1.21.508 1.984s-.177 1.439-.524 2.008c-.419.68-.991 1.02-1.716 1.02-.741 0-1.321-.332-1.732-1.004-.338-.546-.508-1.21-.508-1.984 0-.799.161-1.471.508-2.024.395-.672.983-1.004 1.748-1.004.741 0 1.313.332 1.716 1.004zm8.683-.553c-.185-.032-.387-.047-.604-.047-.669 0-1.192.245-1.555.743-.314.435-.475.996-.475 1.66v4.419h-1.909v-5.771l-.056-2.649h1.659l.072 1.613h.056c.201-.553.516-1.004.951-1.336.427-.3.886-.451 1.377-.451a4.09 4.09 0 0 1 .475.032l.008 1.787zm8.451 3.012c.048-.229.072-.514.072-.846 0-1.051-.258-1.929-.765-2.656-.628-.901-1.571-1.352-2.803-1.352-1.257 0-2.255.451-2.997 1.352-.709.846-1.063 1.905-1.063 3.17 0 1.289.379 2.324 1.136 3.091s1.804 1.154 3.133 1.154c1.104 0 2.062-.174 2.876-.522l-.298-1.297c-.693.261-1.466.395-2.312.395-.765 0-1.386-.198-1.869-.585-.532-.435-.806-1.075-.83-1.905h5.719zm-2.119-2.767c.258.403.387.886.371 1.439l-3.963-.008c.056-.561.25-1.051.564-1.455a1.82 1.82 0 0 1 1.514-.759c.677 0 1.184.261 1.514.783z"></path></svg>